User Type,Username,Date,Text
,b1893757,2013-02-17T17:22Z,"avconv -i *cd1.avi
Input #0, avi, from 'devise-thirteen.cd1.avi':
  Metadata:
    encoder         : VirtualDubMod 1.5.4.1 (build 2178/release)
    IAS1            : English
  Duration: 00:49:36.96, start: 0.000000, bitrate: 1972 kb/s
    Stream #0.0: Video: mpeg4 (Advanced Simple Profile), yuv420p, 720x400 [PAR 1:1 DAR 9:5], 25 tbr, 25 tbn, 25 tbc
    Stream #0.1: Audio: ac3, 48000 Hz, 5.1, s16, 448 kb/s"
,crunch1,2013-03-01T07:22Z,Is this a cut version? It seems to be missing 5 minutes just by looking at the runtime.
